<svg xmlns="http://www.w3.org/2000/svg" xmlns:xlink="http://www.w3.org/1999/xlink" id="body_1" preserveAspectRatio="xMinYMin meet" viewBox="0 0 849 1511"><defs><clipPath id="1"><path id="" clip-rule="evenodd" transform="matrix(1 0 0 1 0 0)" d="M0 1133L0 -0.8582764L0 -0.8582764L637.7953 -0.8582764L637.7953 -0.8582764L637.7953 1133L637.7953 1133L0 1133z" /></clipPath><clipPath id="2"><path id="" clip-rule="evenodd" transform="matrix(1 0 0 1 0 0)" d="M0 1132.972L637.766 1132.972L637.766 1132.972L637.766 -0.8569336L637.766 -0.8569336L0 -0.8569336z" /></clipPath><clipPath id="3"><path id="" clip-rule="evenodd" transform="matrix(1 0 0 1 0 0)" d="M0 1132.942L637.7 1132.942L637.7 1132.942L637.7 -0.8569336L637.7 -0.8569336L0 -0.8569336z" /></clipPath><clipPath id="4"><path id="" clip-rule="evenodd" transform="matrix(1 0 0 1 0 0)" d="M0 1132.942L637.766 1132.942L637.766 1132.942L637.766 -0.8569336L637.766 -0.8569336L0 -0.8569336z" /></clipPath><clipPath id="5"><path id="" clip-rule="evenodd" transform="matrix(1 0 0 1 0 0)" d="M436.199 1069.542L604.099 1069.542L604.099 1069.542L604.099 930.842L604.099 930.842L436.199 930.842z" /></clipPath></defs><g transform="matrix(1.333333 0 0 1.333333 0 0)"><g clip-path="url(#1)"><g clip-path="url(#2)"></g><g clip-path="url(#3)"><g transform="matrix(0.9603915 0 0 0.9600762 0 -0.907959)"><g transform="matrix(1 0 0 1 0 0)"><image x="0" y="0" xlink:href="img_01.png" width="664" height="1181" /></g></g></g><g clip-path="url(#4)"></g><g clip-path="url(#5)"><g transform="matrix(0.96 0 0 0.9565517 436.15 930.792)"><g transform="matrix(1 0 0 1 0 0)"><image x="0" y="0" xlink:href="img_02.png" width="175" height="145" /></g></g></g></g></g></svg>